G04 PROTEUS GERBER X2 FILE*
%TF.GenerationSoftware,Labcenter,Proteus,8.6-SP2-Build23525*%
%TF.CreationDate,2019-01-24T07:34:18+00:00*%
%TF.FileFunction,AssemblyDrawing,Top*%
%TF.FilePolarity,Positive*%
%TF.Part,Single*%
%FSLAX45Y45*%
%MOMM*%
G01*
%TA.AperFunction,Profile*%
%ADD15C,0.203200*%
%TA.AperFunction,Material*%
%ADD16C,0.203200*%
%ADD20C,0.345440*%
%ADD21C,0.136810*%
%ADD22C,0.085340*%
%TD.AperFunction*%
D15*
X-1250000Y-1500000D02*
X+1250000Y-1500000D01*
X+1250000Y+500000D01*
X-1250000Y+500000D01*
X-1250000Y-1500000D01*
D16*
X-518160Y-571500D02*
X+518160Y-571500D01*
X+518160Y+317500D01*
X-518160Y+317500D01*
X-518160Y-571500D01*
D20*
X-276352Y-23368D02*
X-276352Y-196088D01*
X-241808Y-230632D01*
X-103632Y-230632D01*
X-69088Y-196088D01*
X-69088Y-23368D01*
X+69088Y-92456D02*
X+138176Y-23368D01*
X+138176Y-230632D01*
D16*
X-215026Y-1294526D02*
X+469026Y-1294526D01*
X+469026Y-610474D01*
X-215026Y-610474D01*
X-215026Y-1294526D01*
D21*
X+85957Y-1171396D02*
X+168043Y-1171396D01*
X+168043Y-1089310D01*
X+168043Y-1061948D02*
X+85957Y-1061948D01*
X+85957Y-1007224D01*
X+113319Y-979862D01*
X+140681Y-979862D01*
X+168043Y-1007224D01*
X+168043Y-1061948D01*
X+168043Y-952500D02*
X+85957Y-952500D01*
X+85957Y-884095D01*
X+99638Y-870414D01*
X+113319Y-870414D01*
X+127000Y-884095D01*
X+127000Y-952500D01*
X+127000Y-884095D02*
X+140681Y-870414D01*
X+168043Y-870414D01*
X+113319Y-815690D02*
X+85957Y-788328D01*
X+168043Y-788328D01*
D16*
X-708660Y-264160D02*
X-566420Y-264160D01*
X-566420Y+50800D01*
X-708660Y+50800D01*
X-708660Y-264160D01*
D22*
X-611936Y-174955D02*
X-663143Y-174955D01*
X-663143Y-132284D01*
X-654608Y-123749D01*
X-646074Y-123749D01*
X-637540Y-132284D01*
X-637540Y-174955D01*
X-637540Y-132284D02*
X-629005Y-123749D01*
X-611936Y-123749D01*
X-646074Y-89612D02*
X-663143Y-72543D01*
X-611936Y-72543D01*
D16*
X+561340Y-264160D02*
X+703580Y-264160D01*
X+703580Y+50800D01*
X+561340Y+50800D01*
X+561340Y-264160D01*
D22*
X+658064Y-174955D02*
X+606857Y-174955D01*
X+606857Y-132284D01*
X+615392Y-123749D01*
X+623926Y-123749D01*
X+632460Y-132284D01*
X+632460Y-174955D01*
X+632460Y-132284D02*
X+640995Y-123749D01*
X+658064Y-123749D01*
X+615392Y-98146D02*
X+606857Y-89612D01*
X+606857Y-64009D01*
X+615392Y-55474D01*
X+623926Y-55474D01*
X+632460Y-64009D01*
X+632460Y-89612D01*
X+640995Y-98146D01*
X+658064Y-98146D01*
X+658064Y-55474D01*
D16*
X-962660Y-264160D02*
X-820420Y-264160D01*
X-820420Y+50800D01*
X-962660Y+50800D01*
X-962660Y-264160D01*
D22*
X-865936Y-174955D02*
X-917143Y-174955D01*
X-917143Y-132284D01*
X-908608Y-123749D01*
X-900074Y-123749D01*
X-891540Y-132284D01*
X-891540Y-174955D01*
X-891540Y-132284D02*
X-883005Y-123749D01*
X-865936Y-123749D01*
X-908608Y-98146D02*
X-917143Y-89612D01*
X-917143Y-64009D01*
X-908608Y-55474D01*
X-900074Y-55474D01*
X-891540Y-64009D01*
X-883005Y-55474D01*
X-874471Y-55474D01*
X-865936Y-64009D01*
X-865936Y-89612D01*
X-874471Y-98146D01*
X-891540Y-81077D02*
X-891540Y-64009D01*
M02*
