G04 PROTEUS GERBER X2 FILE*
%TF.GenerationSoftware,Labcenter,Proteus,8.6-SP2-Build23525*%
%TF.CreationDate,2019-01-24T07:34:18+00:00*%
%TF.FileFunction,Legend,Top*%
%TF.FilePolarity,Positive*%
%TF.Part,Single*%
%FSLAX45Y45*%
%MOMM*%
G01*
%TA.AperFunction,Profile*%
%ADD15C,0.203200*%
%TA.AperFunction,Material*%
%ADD16C,0.203200*%
%TD.AperFunction*%
D15*
X-1250000Y-1500000D02*
X+1250000Y-1500000D01*
X+1250000Y+500000D01*
X-1250000Y+500000D01*
X-1250000Y-1500000D01*
D16*
X-508000Y+0D02*
X-508000Y+127000D01*
X+508000Y+127000D01*
X+508000Y-381000D01*
X-508000Y-381000D01*
X-508000Y-254000D01*
X-381000Y-127000D02*
X-383436Y-101124D01*
X-390485Y-77152D01*
X-401762Y-55562D01*
X-416878Y-36830D01*
X-435446Y-21431D01*
X-457081Y-9842D01*
X-481394Y-2540D01*
X-508000Y+0D01*
X-381000Y-127000D02*
X-383436Y-153606D01*
X-390485Y-177919D01*
X-401762Y-199554D01*
X-416878Y-218122D01*
X-435446Y-233238D01*
X-457081Y-244515D01*
X-481394Y-251564D01*
X-508000Y-254000D01*
X-640080Y-254000D02*
X-563880Y-254000D01*
X-548640Y-238125D01*
X-548640Y-174625D01*
X-563880Y-158750D01*
X-640080Y-158750D01*
X-609600Y-95250D02*
X-640080Y-63500D01*
X-548640Y-63500D01*
X+458866Y-952500D02*
X+457806Y-926000D01*
X+449203Y-872998D01*
X+431266Y-819996D01*
X+402177Y-766994D01*
X+357821Y-714054D01*
X+304819Y-672294D01*
X+251817Y-645001D01*
X+198815Y-628497D01*
X+145813Y-621168D01*
X+127000Y-620634D01*
X-204866Y-952500D02*
X-203806Y-926000D01*
X-195203Y-872998D01*
X-177266Y-819996D01*
X-148177Y-766994D01*
X-103821Y-714054D01*
X-50819Y-672294D01*
X+2183Y-645001D01*
X+55185Y-628497D01*
X+108187Y-621168D01*
X+127000Y-620634D01*
X-204866Y-952500D02*
X-203806Y-979000D01*
X-195203Y-1032002D01*
X-177266Y-1085004D01*
X-148177Y-1138006D01*
X-103821Y-1190946D01*
X-50819Y-1232706D01*
X+2183Y-1259999D01*
X+55185Y-1276503D01*
X+108187Y-1283832D01*
X+127000Y-1284366D01*
X+458866Y-952500D02*
X+457806Y-979000D01*
X+449203Y-1032002D01*
X+431266Y-1085004D01*
X+402177Y-1138006D01*
X+357821Y-1190946D01*
X+304819Y-1232706D01*
X+251817Y-1259999D01*
X+198815Y-1276503D01*
X+145813Y-1283832D01*
X+127000Y-1284366D01*
X+499506Y-1206500D02*
X+590946Y-1206500D01*
X+590946Y-1111250D01*
X+590946Y-1079500D02*
X+499506Y-1079500D01*
X+499506Y-1016000D01*
X+529986Y-984250D01*
X+560466Y-984250D01*
X+590946Y-1016000D01*
X+590946Y-1079500D01*
X+590946Y-952500D02*
X+499506Y-952500D01*
X+499506Y-873125D01*
X+514746Y-857250D01*
X+529986Y-857250D01*
X+545226Y-873125D01*
X+545226Y-952500D01*
X+545226Y-873125D02*
X+560466Y-857250D01*
X+590946Y-857250D01*
X+529986Y-793750D02*
X+499506Y-762000D01*
X+590946Y-762000D01*
X-576580Y-73660D02*
X-576580Y-142240D01*
X-698500Y-73660D02*
X-698500Y-144780D01*
X-444500Y-233680D02*
X-535940Y-233680D01*
X-535940Y-154305D01*
X-520700Y-138430D01*
X-505460Y-138430D01*
X-490220Y-154305D01*
X-490220Y-233680D01*
X-490220Y-154305D02*
X-474980Y-138430D01*
X-444500Y-138430D01*
X-505460Y-74930D02*
X-535940Y-43180D01*
X-444500Y-43180D01*
X+693420Y-73660D02*
X+693420Y-142240D01*
X+571500Y-73660D02*
X+571500Y-144780D01*
X+825500Y-233680D02*
X+734060Y-233680D01*
X+734060Y-154305D01*
X+749300Y-138430D01*
X+764540Y-138430D01*
X+779780Y-154305D01*
X+779780Y-233680D01*
X+779780Y-154305D02*
X+795020Y-138430D01*
X+825500Y-138430D01*
X+749300Y-90805D02*
X+734060Y-74930D01*
X+734060Y-27305D01*
X+749300Y-11430D01*
X+764540Y-11430D01*
X+779780Y-27305D01*
X+779780Y-74930D01*
X+795020Y-90805D01*
X+825500Y-90805D01*
X+825500Y-11430D01*
X-830580Y-73660D02*
X-830580Y-142240D01*
X-952500Y-73660D02*
X-952500Y-144780D01*
X-698500Y-233680D02*
X-789940Y-233680D01*
X-789940Y-154305D01*
X-774700Y-138430D01*
X-759460Y-138430D01*
X-744220Y-154305D01*
X-744220Y-233680D01*
X-744220Y-154305D02*
X-728980Y-138430D01*
X-698500Y-138430D01*
X-774700Y-90805D02*
X-789940Y-74930D01*
X-789940Y-27305D01*
X-774700Y-11430D01*
X-759460Y-11430D01*
X-744220Y-27305D01*
X-728980Y-11430D01*
X-713740Y-11430D01*
X-698500Y-27305D01*
X-698500Y-74930D01*
X-713740Y-90805D01*
X-744220Y-59055D02*
X-744220Y-27305D01*
M02*
